HIERARCHY
ROOT Hips
{
	OFFSET -0.001795 -0.223333 0.028219
	CHANNELS 6 Xposition Yposition Zposition Zrotation Yrotation Xrotation 
	JOINT LeftUpLeg
	{
		OFFSET 0.069520 -0.091406 -0.006815
		CHANNELS 3 Zrotation Yrotation Xrotation
		JOINT LeftLeg
		{
			OFFSET 0.034277 -0.375199 -0.004496
			CHANNELS 3 Zrotation Yrotation Xrotation
			JOINT LeftFoot
			{
				OFFSET -0.013596 -0.397961 -0.043693
				CHANNELS 3 Zrotation Yrotation Xrotation
				JOINT LeftToe
				{
					OFFSET 0.026358 -0.055791 0.119288
					CHANNELS 3 Zrotation Yrotation Xrotation
					End Site
					{
						OFFSET 0.000000 0.000000 0.000000
					}
				}
			}
		}
	}
	JOINT RightUpLeg
	{
		OFFSET -0.067670 -0.090522 -0.004320
		CHANNELS 3 Zrotation Yrotation Xrotation
		JOINT RightLeg
		{
			OFFSET -0.038290 -0.382569 -0.008850
			CHANNELS 3 Zrotation Yrotation Xrotation
			JOINT RightFoot
			{
				OFFSET 0.015774 -0.398415 -0.042312
				CHANNELS 3 Zrotation Yrotation Xrotation
				JOINT RightToe
				{
					OFFSET -0.025372 -0.048144 0.123348
					CHANNELS 3 Zrotation Yrotation Xrotation
					End Site
					{
						OFFSET 0.000000 0.000000 0.000000
					}
				}
			}
		}
	}
	JOINT Spine
	{
		OFFSET -0.002533 0.108963 -0.026696
		CHANNELS 3 Zrotation Yrotation Xrotation
		JOINT Spine1
		{
			OFFSET 0.005487 0.135180 0.001092
			CHANNELS 3 Zrotation Yrotation Xrotation
			JOINT Spine2
			{
				OFFSET 0.001457 0.052922 0.025425
				CHANNELS 3 Zrotation Yrotation Xrotation
				JOINT Neck
				{
					OFFSET -0.002778 0.213870 -0.042857
					CHANNELS 3 Zrotation Yrotation Xrotation
					JOINT Head
					{
						OFFSET 0.005152 0.064970 0.051349
						CHANNELS 3 Zrotation Yrotation Xrotation
						End Site
						{
							OFFSET 0.000000 0.000000 0.000000
						}
					}
				}
				JOINT LeftShoulder
				{
					OFFSET 0.078845 0.121749 -0.034090
					CHANNELS 3 Zrotation Yrotation Xrotation
					JOINT LeftArm
					{
						OFFSET 0.090977 0.030469 -0.008868
						CHANNELS 3 Zrotation Yrotation Xrotation
						JOINT LeftForeArm
						{
							OFFSET 0.259612 -0.012772 -0.027456
							CHANNELS 3 Zrotation Yrotation Xrotation
							JOINT LeftHand
							{
								OFFSET 0.249234 0.008986 -0.001171
								CHANNELS 3 Zrotation Yrotation Xrotation
								End Site
								{
									OFFSET 0.000000 0.000000 0.000000
								}
							}
						}
					}
				}
				JOINT RightShoulder
				{
					OFFSET -0.081759 0.118833 -0.038615
					CHANNELS 3 Zrotation Yrotation Xrotation
					JOINT RightArm
					{
						OFFSET -0.096012 0.032551 -0.009143
						CHANNELS 3 Zrotation Yrotation Xrotation
						JOINT RightForeArm
						{
							OFFSET -0.253742 -0.013329 -0.021401
							CHANNELS 3 Zrotation Yrotation Xrotation
							JOINT RightHand
							{
								OFFSET -0.255298 0.007772 -0.005559
								CHANNELS 3 Zrotation Yrotation Xrotation
								End Site
								{
									OFFSET 0.000000 0.000000 0.000000
								}
							}
						}
					}
				}
			}
		}
	}
}
MOTION
Frames: 15
Frame Time: 0.050000
0.000000 0.959394 0.000000 1.182666 7.160647 6.702708 1.785188 -0.264214 -2.718119 0.131607 0.106509 -3.448096 12.603808 23.855940 29.555588 0.000000 0.000000 0.000000 -3.678819 0.901693 -13.130022 -3.448512 0.472098 1.167814 3.916324 -2.003112 28.072379 0.000000 0.000000 0.000000 7.461677 -0.985481 6.591170 3.212272 -1.756303 2.496887 -5.202326 -1.444878 6.588035 12.501596 -8.658135 -6.201030 0.000000 0.000000 0.000000 -5.343817 -25.957413 9.659852 -38.985018 -19.544871 1.299604 -77.042337 -56.646418 48.646463 0.000000 0.000000 0.000000 8.661546 10.841724 4.428605 46.899506 5.932438 -2.443117 58.696421 52.537287 33.692446 0.000000 0.000000 0.000000 
0.000757 0.957612 -0.001054 0.732767 6.436084 6.963257 1.977989 -0.301700 -3.177871 0.928901 0.068933 -3.801979 13.045844 24.163991 31.613538 0.000000 0.000000 0.000000 -3.566458 0.934910 -13.208310 -3.239225 0.491181 1.930191 4.786938 0.660506 23.436392 0.000000 0.000000 0.000000 7.337937 -1.040196 7.140838 3.023894 -1.599316 1.912934 -5.015306 0.475051 7.110864 15.294161 -11.019530 -5.443266 0.000000 0.000000 0.000000 -4.522932 -25.827134 9.305946 -39.358200 -20.888783 1.698553 -78.045617 -54.585923 46.907490 0.000000 0.000000 0.000000 8.298621 10.037718 4.265936 47.458012 5.992912 -2.483466 58.395879 54.639068 35.616011 0.000000 0.000000 0.000000 
0.000757 0.957250 -0.002291 0.564810 6.184714 6.618079 2.848110 -0.284607 -2.757157 -0.032240 0.136560 -4.071075 12.700991 23.776932 31.914141 0.000000 0.000000 0.000000 -3.124994 0.948496 -12.692656 -3.871474 0.529633 1.318812 5.302438 1.288046 23.772033 0.000000 0.000000 0.000000 7.895763 -1.163945 7.767885 3.736054 -2.011474 2.575066 -5.625459 -0.107623 5.870335 14.923374 -10.883459 -4.688640 0.000000 0.000000 0.000000 -4.257593 -26.128412 9.457482 -39.730034 -18.897887 1.193703 -72.549761 -53.176910 41.895044 0.000000 0.000000 0.000000 7.285015 11.180762 4.596707 48.839761 7.809215 -1.670941 51.918020 55.018652 31.491233 0.000000 0.000000 0.000000 
0.000147 0.957253 -0.003451 0.561534 5.546220 7.334193 2.976296 -0.350984 -3.709085 0.098071 0.120976 -3.810516 12.280236 23.295212 32.628329 0.000000 0.000000 0.000000 -3.453151 0.989669 -13.599987 -3.316079 0.479227 1.651529 5.596673 2.018893 22.727105 0.000000 0.000000 0.000000 8.104857 -1.196919 7.722499 3.475953 -1.908741 3.041098 -5.511173 -0.223984 5.633273 15.485177 -10.968716 -5.741565 0.000000 0.000000 0.000000 -2.892706 -26.319729 9.413654 -41.685471 -18.722522 1.238287 -68.526054 -54.280815 40.249102 0.000000 0.000000 0.000000 5.805885 11.330131 4.502759 50.553598 10.238345 -0.624961 48.415311 56.288767 30.035590 0.000000 0.000000 0.000000 
-0.001172 0.957192 -0.004614 0.771505 5.572226 7.083890 2.990493 -0.331676 -3.433400 -0.197941 0.132587 -3.576142 11.769971 22.821694 31.490048 0.000000 0.000000 0.000000 -3.913002 0.921172 -13.180796 -2.817923 0.410692 1.540485 5.646441 2.367837 22.057476 0.000000 0.000000 0.000000 7.955819 -1.222486 8.130830 4.132735 -2.292740 3.557388 -5.914809 -1.329269 5.009254 14.245081 -10.400337 -4.338012 0.000000 0.000000 0.000000 -3.168772 -27.215685 9.917877 -42.402416 -19.333743 1.548310 -59.537244 -54.916169 35.134160 0.000000 0.000000 0.000000 6.224357 13.272826 5.239079 50.815495 13.613335 0.810100 39.544623 56.707409 24.562758 0.000000 0.000000 0.000000 
-0.003013 0.957054 -0.005665 0.737299 5.080677 6.960732 3.010999 -0.361330 -3.921472 0.062673 0.080563 -2.503147 11.830022 22.831238 31.758435 0.000000 0.000000 0.000000 -3.700330 0.959114 -13.351980 -3.005686 0.449973 1.826104 6.018467 2.937958 21.867004 0.000000 0.000000 0.000000 8.003664 -1.336532 9.091915 3.873756 -2.158696 3.651231 -5.860295 -1.157182 4.602422 14.259560 -10.467292 -4.045085 0.000000 0.000000 0.000000 -3.116137 -28.155342 10.296651 -43.279044 -21.472958 2.395098 -50.226966 -54.233777 28.946752 0.000000 0.000000 0.000000 5.853842 13.806991 5.425885 52.750366 16.223645 2.111455 32.643495 57.220056 20.751626 0.000000 0.000000 0.000000 
-0.004910 0.957165 -0.006467 1.004602 5.743607 7.232477 2.847770 -0.413318 -4.659236 -0.156958 0.088627 -2.245132 12.517595 23.574034 32.343848 0.000000 0.000000 0.000000 -4.097811 0.909915 -13.326015 -2.750764 0.405907 1.595680 5.857052 2.994328 21.442379 0.000000 0.000000 0.000000 7.818600 -1.273368 8.639648 3.994917 -2.203122 3.334990 -6.033648 -1.865332 5.039802 13.760261 -10.056447 -4.217814 0.000000 0.000000 0.000000 -3.787303 -28.921517 10.779034 -43.524950 -23.170057 3.008155 -43.032036 -54.036662 24.766344 0.000000 0.000000 0.000000 5.969838 14.553118 5.718868 53.299806 17.798520 2.817809 28.301471 56.134688 17.774935 0.000000 0.000000 0.000000 
-0.006619 0.957692 -0.006937 1.107898 6.621896 7.587326 2.862997 -0.451959 -5.156469 0.106626 0.063036 -2.080461 11.331792 22.526644 31.371382 0.000000 0.000000 0.000000 -4.106134 0.897599 -13.395849 -2.660585 0.379100 1.288588 5.250533 2.156246 21.535394 0.000000 0.000000 0.000000 7.919307 -1.248507 8.180600 4.181946 -2.324700 3.454185 -6.631119 -1.793765 4.723274 14.102187 -10.302892 -4.151727 0.000000 0.000000 0.000000 -3.488907 -29.875088 11.036765 -43.337190 -24.781544 3.594347 -41.433812 -55.101286 24.236250 0.000000 0.000000 0.000000 5.717178 14.871739 5.908855 53.607267 18.435270 3.208378 26.537609 55.925450 16.856946 0.000000 0.000000 0.000000 
-0.008011 0.958201 -0.007099 1.331429 7.779334 8.034078 2.594657 -0.517093 -5.992264 0.325157 0.027321 -1.539395 10.799696 22.140395 30.310365 0.000000 0.000000 0.000000 -4.261499 0.856819 -13.246277 -2.691790 0.344077 0.565802 4.736646 1.494366 21.742471 0.000000 0.000000 0.000000 7.972563 -1.214473 7.649683 3.802156 -2.113808 3.106811 -6.768591 -1.824792 5.258645 13.684437 -9.841969 -4.701234 0.000000 0.000000 0.000000 -3.726288 -30.370265 11.221208 -42.547390 -26.097534 3.919831 -44.786005 -57.643343 27.485684 0.000000 0.000000 0.000000 4.906094 14.993432 5.948712 53.502769 17.910279 2.960129 27.252878 55.979714 17.416063 0.000000 0.000000 0.000000 
-0.009303 0.959052 -0.007315 1.808420 9.233135 8.531398 2.125990 -0.575587 -6.661217 0.754261 -0.019436 -1.177140 9.163017 20.614931 28.750787 0.000000 0.000000 0.000000 -4.412242 0.814579 -13.279297 -3.040604 0.361457 0.085060 3.751890 0.025313 22.351948 0.000000 0.000000 0.000000 8.068971 -1.206331 7.291200 3.617319 -2.018297 2.878761 -7.279802 -1.521761 5.623097 13.815779 -9.699913 -5.516067 0.000000 0.000000 0.000000 -3.252119 -30.812911 11.174383 -42.160134 -27.562753 4.328122 -51.678563 -59.662273 32.792867 0.000000 0.000000 0.000000 4.304261 15.122684 6.061266 53.318750 17.430417 2.766123 27.793068 56.778201 18.310955 0.000000 0.000000 0.000000 
-0.010622 0.959204 -0.008046 1.985060 10.331647 8.949920 2.179873 -0.630935 -7.314293 0.762227 -0.039888 -0.671147 7.895561 19.328509 27.041600 0.000000 0.000000 0.000000 -4.421167 0.802245 -13.554909 -3.190947 0.371077 -0.112617 3.133822 -0.904644 22.986787 0.000000 0.000000 0.000000 8.036214 -1.178823 6.937731 3.468253 -1.911528 2.433440 -7.697866 -0.761956 6.300126 14.511882 -10.093705 -5.992303 0.000000 0.000000 0.000000 -2.365558 -31.276878 11.036311 -41.669826 -29.341802 4.761562 -57.926569 -61.721021 38.053598 0.000000 0.000000 0.000000 3.689136 14.919698 6.040436 53.096844 17.291913 2.730490 28.298639 57.875007 19.407081 0.000000 0.000000 0.000000 
-0.011957 0.959342 -0.009473 2.248345 11.427631 9.374343 2.267162 -0.690308 -8.002925 0.699287 -0.043180 -0.444424 6.596921 17.995725 26.267892 0.000000 0.000000 0.000000 -4.644642 0.764571 -13.813701 -3.292408 0.376926 -0.277820 2.799216 -1.309787 23.418159 0.000000 0.000000 0.000000 8.175842 -1.221401 6.976954 3.017149 -1.720462 2.614511 -8.093227 -0.428745 5.944420 14.621439 -10.112526 -6.006454 0.000000 0.000000 0.000000 -1.920850 -31.193041 10.832698 -41.237556 -30.696814 5.134234 -63.930824 -63.058836 43.055210 0.000000 0.000000 0.000000 2.624473 15.132782 6.064324 52.877442 17.675689 3.044747 27.795483 59.832671 20.129717 0.000000 0.000000 0.000000 
-0.013236 0.959493 -0.011387 2.550832 12.182893 9.853979 2.234689 -0.762115 -8.808139 0.554476 -0.049886 0.011947 5.733360 17.054209 25.411597 0.000000 0.000000 0.000000 -4.826947 0.742690 -14.287351 -3.606290 0.432218 -0.028085 2.688009 -1.223204 23.093869 0.000000 0.000000 0.000000 7.626752 -1.206862 7.242466 2.929448 -1.633645 2.110294 -8.359106 0.263768 6.206728 14.765336 -10.160242 -6.128427 0.000000 0.000000 0.000000 -1.511571 -31.379818 10.723934 -40.777778 -31.387334 5.207387 -65.718290 -64.661060 45.277310 0.000000 0.000000 0.000000 2.263540 15.852573 6.401025 51.671622 19.333552 3.723996 24.020595 61.548137 18.785786 0.000000 0.000000 0.000000 
-0.014463 0.959536 -0.013296 2.825201 12.784275 10.620886 2.317085 -0.828972 -9.540518 0.542953 -0.044006 -0.098015 4.311980 15.410819 24.583101 0.000000 0.000000 0.000000 -5.056741 0.725112 -15.119491 -3.905164 0.468923 -0.025207 2.834541 -0.983887 23.552563 0.000000 0.000000 0.000000 7.544479 -1.198925 7.062196 2.419374 -1.360684 1.827884 -8.910575 0.837211 6.289788 14.808473 -10.062908 -6.398882 0.000000 0.000000 0.000000 -1.233595 -31.436745 10.610098 -40.257914 -31.597666 5.131370 -65.975905 -65.103744 45.461473 0.000000 0.000000 0.000000 1.275418 16.747688 6.680882 51.246191 21.464247 4.763744 19.210872 62.604725 16.398565 0.000000 0.000000 0.000000 
-0.015514 0.959580 -0.015091 3.025135 13.224325 10.976679 2.497486 -0.877254 -10.097106 0.268783 -0.029584 0.096328 3.507989 14.481102 24.230796 0.000000 0.000000 0.000000 -5.133057 0.710220 -15.350875 -4.071621 0.481903 -0.143859 2.580447 -1.217850 23.344199 0.000000 0.000000 0.000000 7.137444 -1.198227 7.377809 2.173179 -1.202448 1.400138 -9.220156 1.718304 6.729909 14.928762 -10.036208 -6.695261 0.000000 0.000000 0.000000 -1.323228 -31.796413 10.633718 -39.038188 -31.024876 4.681822 -62.156743 -65.643657 42.543608 0.000000 0.000000 0.000000 0.575293 17.996533 7.137045 50.659013 24.245869 6.038271 12.163573 63.521851 12.522305 0.000000 0.000000 0.000000 
